<?xml version="1.0" encoding="utf-8"?>
<!-- Generator: Adobe Illustrator 24.1.2, SVG Export Plug-In . SVG Version: 6.00 Build 0)  -->
<svg version="1.1" id="レイヤー_1" xmlns="http://www.w3.org/2000/svg" xmlns:xlink="http://www.w3.org/1999/xlink" x="0px"
	 y="0px" viewBox="0 0 1280 640" style="enable-background:new 0 0 1280 640;" xml:space="preserve">
<style type="text/css">
	.st0{fill:#FFFFFF;}
	.st1{fill:#0D9661;}
	.st2{fill:#3078DE;}
	.st3{fill:#F2BA42;}
	.st4{fill:#2E6ECC;}
	.st5{fill:#DBA83D;}
	.st6{fill:#0D8A59;}
	.st7{fill:#FFFFFF;stroke:#000000;stroke-width:29.6703;}
	.st8{fill:none;stroke:#000000;stroke-width:20.3109;stroke-linecap:round;}
	.st9{fill:#999999;}
	.st10{fill-rule:evenodd;clip-rule:evenodd;fill:#999999;}
</style>
<rect class="st0" width="1280" height="640"/>
<g>
	<path class="st1" d="M864,506.6l-75-129.9l140.5-243.4l75,129.9L864,506.6z"/>
	<path class="st2" d="M864,506.6l75-129.9l281.1,0l-75,129.9L864,506.6z"/>
	<path class="st3" d="M1220,376.8l-150,0L929.5,133.4h149.9L1220,376.8z"/>
	<path class="st4" d="M1004.5,376.8h-65.6l-75,129.9L1004.5,376.8z"/>
	<path class="st5" d="M1070,376.8l150,0L1037.3,320L1070,376.8z"/>
	<path class="st6" d="M971.7,320l32.8-56.8l-75-129.9L971.7,320z"/>
</g>
<g>
	<path id="rect3040" class="st7" d="M128.1,121.3h277.8c9.4,0,17.1,7.6,17.1,17.1v363.2c0,9.4-7.6,17.1-17.1,17.1H128.1
		c-9.4,0-17.1-7.6-17.1-17.1V138.4C111,129,118.7,121.3,128.1,121.3z"/>
	<path id="path3042" class="st8" d="M179.9,217.5h174.2"/>
	<path id="path3044" class="st8" d="M179.9,285.8h174.2"/>
	<path id="path3046" class="st8" d="M179.9,354.2h174.2"/>
	<path id="path3048" class="st8" d="M179.9,422.5h174.2"/>
</g>
<g id="layer1" transform="translate(-187.29666,1562.9016)">
	<g id="g3798" transform="matrix(1.000798,0,0,1.0007922,-0.14946163,-0.38430858)">
		<path id="rect2985" class="st9" d="M866.9-1358.2c-5.7,0-11.5,2.2-15.8,6.5l-48.8,48.8c-8.6,8.6-8.6,23,0,31.6l3.2,3.2l16-16l-3-3
			l48.3-48.3l52.2,52.2l-48.3,48.3l-3-3l-16,16l3.2,3.2c8.6,8.6,23,8.6,31.6,0l48.8-48.8c8.6-8.6,8.6-23,0-31.6l-52.6-52.6
			C878.4-1356,872.6-1358.2,866.9-1358.2z"/>
		<path id="use3779" class="st9" d="M779.7-1271.1c-5.7,0-11.5,2.2-15.8,6.5l-48.8,48.8c-8.6,8.6-8.6,23,0,31.6l52.6,52.6
			c8.6,8.6,23,8.6,31.6,0l48.8-48.8c8.6-8.6,8.6-23,0-31.6l-3.2-3.2l-16,16l3,3l-48.3,48.3l-52.2-52.2l48.3-48.3l3,3l16-16l-3.2-3.2
			C791.2-1268.9,785.5-1271.1,779.7-1271.1z"/>
		<path id="rect3785" class="st10" d="M846-1293c-1.3,0-2.6,0.5-3.6,1.5l-66.9,66.9c-2,2-2,5.1,0,7.2l25.4,25.4c2,2,5.1,2,7.2,0
			l66.9-66.9c2-2,2.1-5.1,0-7.2l-25.4-25.4C848.6-1292.5,847.3-1293,846-1293L846-1293z"/>
	</g>
</g>
</svg>
